Noted French director Claude Chabrol helmed this oddity, a remake of German director Fritz Lang's 1922 classic Dr. Mabuse. The film features an all-star international cast as it tells the futuristic horror story of a bizarre epidemic which has swept West Berlin leaving a grim trail of grisly suicides. Meanwhile, the media broadcasts weird, highly suggestive propaganda. The authorities are appalled by all the bloodshed, but only one lone cop suspects that the "suicides" are really the work of a demented criminal mastermind.

   General
      Complete name : Dr. M (Claude Chabrol, 1990).mkv
      Format : Matroska
      File size : 1.36 GiB
      Duration : 1h 48mn
      Overall bit rate : 1 801 Kbps
      Movie name : Dr. M
      Encoded date : UTC 2008-07-20 01:19:19
      Writing application : mkvmerge v2.2.0 ('Turn It On Again') built on Jun  1 2008 05:56:03
      Writing library : libebml v0.7.8 + libmatroska v0.8.1
   Video #1
      ID : 1
      Format : AVC
      Format/Info : Advanced Video Codec
      Format profile : High@L5.1
      Format settings, CABAC : Yes
      Format settings, ReFrames : 8 frames
      Muxing mode : Container profile=Unknown@5.1
      Codec ID : V_MPEG4/ISO/AVC
      Duration : 1h 48mn
      Bit rate : 1 461 Kbps
      Nominal bit rate : 1 500 Kbps
      Width : 704 pixels
      Height : 464 pixels
      Display aspect ratio : 1.616
      Original display aspect ratio : 1.517
      Frame rate : 25.000 fps
      Resolution : 24 bits
      Colorimetry : 4:2:0
      Scan type : Progressive
      Bits/(Pixel*Frame) : 0.179
      Stream size : 1.10 GiB (81%)
      Writing library : x264 core 54
   Audio #2
      ID : 2
      Format : AC-3
      Format/Info : Audio Coding 3
      Codec ID : A_AC3
      Duration : 1h 48mn
      Bit rate mode : Constant
      Bit rate : 192 Kbps
      Channel(s) : 2 channels
      Channel positions : L R
      Sampling rate : 48.0 KHz
      Video delay : -40ms
      Stream size : 148 MiB (11%)
      Language : English
   Audio #3
      ID : 3
      Format : Vorbis
      Format settings, Floor : 1
      Codec ID : A_VORBIS
      Duration : 1h 48mn
      Bit rate mode : Constant
      Bit rate : 112 Kbps
      Channel(s) : 2 channels
      Sampling rate : 48.0 KHz
      Video delay : -40ms
      Stream size : 86.5 MiB (6%)
      Writing library : libVorbis 1.2 (UTC 2007-06-22)
      Language : German
 
http://www.imdb.com/title/tt0099445/

English and German audio; Spanish subtitles